<mxfile host="app.diagrams.net" modified="2024-04-11T15:39:04.425Z" agent="Mozilla/5.0 (Windows NT 10.0; Win64; x64) AppleWebKit/537.36 (KHTML, like Gecko) Chrome/123.0.0.0 Safari/537.36" etag="RTn3tDUEf6n_8Y2hNJF9" version="24.2.2" type="device">
  <diagram name="Page-1" id="sFf4b3YyXBVLJRdlfQBh">
    <mxGraphModel dx="756" dy="400" grid="1" gridSize="10" guides="1" tooltips="1" connect="1" arrows="1" fold="1" page="1" pageScale="1" pageWidth="1169" pageHeight="827" math="0" shadow="0">
      <root>
        <mxCell id="0" />
        <mxCell id="1" parent="0" />
        <mxCell id="wEPaZ30keEf7oGlMj-yY-1" value="" style="swimlane;startSize=0;" parent="1" vertex="1">
          <mxGeometry x="310" y="140" width="450" height="300" as="geometry" />
        </mxCell>
        <mxCell id="wEPaZ30keEf7oGlMj-yY-3" value="Sign In" style="ellipse;whiteSpace=wrap;html=1;" parent="wEPaZ30keEf7oGlMj-yY-1" vertex="1">
          <mxGeometry x="10" y="75" width="90" height="50" as="geometry" />
        </mxCell>
        <mxCell id="wEPaZ30keEf7oGlMj-yY-4" value="Set Sign In" style="ellipse;whiteSpace=wrap;html=1;" parent="wEPaZ30keEf7oGlMj-yY-1" vertex="1">
          <mxGeometry x="10" width="90" height="50" as="geometry" />
        </mxCell>
        <mxCell id="wEPaZ30keEf7oGlMj-yY-5" value="Sign Out" style="ellipse;whiteSpace=wrap;html=1;" parent="wEPaZ30keEf7oGlMj-yY-1" vertex="1">
          <mxGeometry x="160" y="40" width="90" height="50" as="geometry" />
        </mxCell>
        <mxCell id="wEPaZ30keEf7oGlMj-yY-6" value="View Credentials" style="ellipse;whiteSpace=wrap;html=1;" parent="wEPaZ30keEf7oGlMj-yY-1" vertex="1">
          <mxGeometry x="130" y="140" width="90" height="50" as="geometry" />
        </mxCell>
        <mxCell id="wEPaZ30keEf7oGlMj-yY-7" value="Hide/Unhide passwords" style="ellipse;whiteSpace=wrap;html=1;" parent="wEPaZ30keEf7oGlMj-yY-1" vertex="1">
          <mxGeometry x="270" y="80" width="90" height="50" as="geometry" />
        </mxCell>
        <mxCell id="wEPaZ30keEf7oGlMj-yY-8" value="Copy passwords" style="ellipse;whiteSpace=wrap;html=1;" parent="wEPaZ30keEf7oGlMj-yY-1" vertex="1">
          <mxGeometry x="280" y="190" width="90" height="50" as="geometry" />
        </mxCell>
        <mxCell id="mL8hyK8v3Te0kBC7LYM0-2" value="Edit Credentials" style="ellipse;whiteSpace=wrap;html=1;" parent="wEPaZ30keEf7oGlMj-yY-1" vertex="1">
          <mxGeometry x="70" y="230" width="90" height="50" as="geometry" />
        </mxCell>
        <mxCell id="mL8hyK8v3Te0kBC7LYM0-6" value="Add Credentials" style="ellipse;whiteSpace=wrap;html=1;" parent="wEPaZ30keEf7oGlMj-yY-1" vertex="1">
          <mxGeometry x="190" y="230" width="90" height="50" as="geometry" />
        </mxCell>
        <mxCell id="mL8hyK8v3Te0kBC7LYM0-8" value="Save Credentials" style="ellipse;whiteSpace=wrap;html=1;" parent="wEPaZ30keEf7oGlMj-yY-1" vertex="1">
          <mxGeometry x="340" y="140" width="90" height="50" as="geometry" />
        </mxCell>
        <mxCell id="1A38qkfNRPLfH7NeYKPI-2" value="&amp;lt;&amp;lt;include&amp;gt;&amp;gt;" style="html=1;verticalAlign=bottom;labelBackgroundColor=none;endArrow=open;endFill=0;dashed=1;rounded=0;entryX=0;entryY=0;entryDx=0;entryDy=0;exitX=0.5;exitY=1;exitDx=0;exitDy=0;" edge="1" parent="wEPaZ30keEf7oGlMj-yY-1" source="wEPaZ30keEf7oGlMj-yY-3" target="wEPaZ30keEf7oGlMj-yY-6">
          <mxGeometry x="0.4187" y="4" width="160" relative="1" as="geometry">
            <mxPoint x="30" y="180" as="sourcePoint" />
            <mxPoint x="190" y="180" as="targetPoint" />
            <mxPoint as="offset" />
          </mxGeometry>
        </mxCell>
        <mxCell id="1A38qkfNRPLfH7NeYKPI-3" value="&amp;lt;&amp;lt;extend&amp;gt;&amp;gt;" style="html=1;verticalAlign=bottom;labelBackgroundColor=none;endArrow=open;endFill=0;dashed=1;rounded=0;entryX=0.5;entryY=0;entryDx=0;entryDy=0;exitX=0.5;exitY=1;exitDx=0;exitDy=0;" edge="1" parent="wEPaZ30keEf7oGlMj-yY-1" source="wEPaZ30keEf7oGlMj-yY-4" target="wEPaZ30keEf7oGlMj-yY-3">
          <mxGeometry x="0.6" y="35" width="160" relative="1" as="geometry">
            <mxPoint x="20" y="40" as="sourcePoint" />
            <mxPoint x="180" y="40" as="targetPoint" />
            <mxPoint as="offset" />
          </mxGeometry>
        </mxCell>
        <mxCell id="1A38qkfNRPLfH7NeYKPI-4" value="&amp;lt;&amp;lt;extend&amp;gt;&amp;gt;" style="html=1;verticalAlign=bottom;labelBackgroundColor=none;endArrow=open;endFill=0;dashed=1;rounded=0;entryX=1;entryY=0.5;entryDx=0;entryDy=0;exitX=0;exitY=1;exitDx=0;exitDy=0;" edge="1" parent="wEPaZ30keEf7oGlMj-yY-1" source="wEPaZ30keEf7oGlMj-yY-5" target="wEPaZ30keEf7oGlMj-yY-3">
          <mxGeometry width="160" relative="1" as="geometry">
            <mxPoint x="250" y="50" as="sourcePoint" />
            <mxPoint x="410" y="50" as="targetPoint" />
          </mxGeometry>
        </mxCell>
        <mxCell id="1A38qkfNRPLfH7NeYKPI-5" value="&amp;lt;&amp;lt;extend&amp;gt;&amp;gt;" style="html=1;verticalAlign=bottom;labelBackgroundColor=none;endArrow=open;endFill=0;dashed=1;rounded=0;entryX=0;entryY=1;entryDx=0;entryDy=0;exitX=0.5;exitY=0;exitDx=0;exitDy=0;" edge="1" parent="wEPaZ30keEf7oGlMj-yY-1" source="mL8hyK8v3Te0kBC7LYM0-2" target="wEPaZ30keEf7oGlMj-yY-6">
          <mxGeometry x="-0.9654" y="18" width="160" relative="1" as="geometry">
            <mxPoint x="90" y="220" as="sourcePoint" />
            <mxPoint x="250" y="220" as="targetPoint" />
            <mxPoint as="offset" />
          </mxGeometry>
        </mxCell>
        <mxCell id="1A38qkfNRPLfH7NeYKPI-6" value="&amp;lt;&amp;lt;extend&amp;gt;&amp;gt;" style="html=1;verticalAlign=bottom;labelBackgroundColor=none;endArrow=open;endFill=0;dashed=1;rounded=0;entryX=1;entryY=1;entryDx=0;entryDy=0;exitX=0;exitY=0;exitDx=0;exitDy=0;" edge="1" parent="wEPaZ30keEf7oGlMj-yY-1" source="mL8hyK8v3Te0kBC7LYM0-6" target="wEPaZ30keEf7oGlMj-yY-6">
          <mxGeometry x="-0.7906" y="24" width="160" relative="1" as="geometry">
            <mxPoint x="130" y="170" as="sourcePoint" />
            <mxPoint x="290" y="170" as="targetPoint" />
            <mxPoint as="offset" />
          </mxGeometry>
        </mxCell>
        <mxCell id="1A38qkfNRPLfH7NeYKPI-9" value="&amp;lt;&amp;lt;include&amp;gt;&amp;gt;" style="html=1;verticalAlign=bottom;labelBackgroundColor=none;endArrow=open;endFill=0;dashed=1;rounded=0;exitX=1;exitY=0;exitDx=0;exitDy=0;entryX=0;entryY=0.5;entryDx=0;entryDy=0;" edge="1" parent="wEPaZ30keEf7oGlMj-yY-1" source="wEPaZ30keEf7oGlMj-yY-6" target="wEPaZ30keEf7oGlMj-yY-7">
          <mxGeometry x="-0.5153" y="6" width="160" relative="1" as="geometry">
            <mxPoint x="180" y="160" as="sourcePoint" />
            <mxPoint x="340" y="160" as="targetPoint" />
            <mxPoint as="offset" />
          </mxGeometry>
        </mxCell>
        <mxCell id="1A38qkfNRPLfH7NeYKPI-10" value="&amp;lt;&amp;lt;extend&amp;gt;&amp;gt;" style="html=1;verticalAlign=bottom;labelBackgroundColor=none;endArrow=open;endFill=0;dashed=1;rounded=0;entryX=1;entryY=0.5;entryDx=0;entryDy=0;exitX=0;exitY=0.5;exitDx=0;exitDy=0;" edge="1" parent="wEPaZ30keEf7oGlMj-yY-1" source="mL8hyK8v3Te0kBC7LYM0-8" target="wEPaZ30keEf7oGlMj-yY-6">
          <mxGeometry width="160" relative="1" as="geometry">
            <mxPoint x="190" y="140" as="sourcePoint" />
            <mxPoint x="350" y="140" as="targetPoint" />
          </mxGeometry>
        </mxCell>
        <mxCell id="1A38qkfNRPLfH7NeYKPI-11" value="&amp;lt;&amp;lt;extend&amp;gt;&amp;gt;" style="html=1;verticalAlign=bottom;labelBackgroundColor=none;endArrow=open;endFill=0;dashed=1;rounded=0;entryX=1;entryY=0.5;entryDx=0;entryDy=0;exitX=0;exitY=0;exitDx=0;exitDy=0;" edge="1" parent="wEPaZ30keEf7oGlMj-yY-1" source="wEPaZ30keEf7oGlMj-yY-8" target="wEPaZ30keEf7oGlMj-yY-6">
          <mxGeometry x="-0.0145" y="17" width="160" relative="1" as="geometry">
            <mxPoint x="220" y="180" as="sourcePoint" />
            <mxPoint x="380" y="180" as="targetPoint" />
            <mxPoint as="offset" />
          </mxGeometry>
        </mxCell>
        <mxCell id="wEPaZ30keEf7oGlMj-yY-2" value="User" style="shape=umlActor;verticalLabelPosition=bottom;verticalAlign=top;html=1;outlineConnect=0;" parent="1" vertex="1">
          <mxGeometry x="230" y="210" width="30" height="60" as="geometry" />
        </mxCell>
        <mxCell id="wEPaZ30keEf7oGlMj-yY-14" value="" style="endArrow=none;html=1;rounded=0;entryX=1;entryY=0.3333333333333333;entryDx=0;entryDy=0;entryPerimeter=0;exitX=0;exitY=0.5;exitDx=0;exitDy=0;" parent="1" source="wEPaZ30keEf7oGlMj-yY-3" target="wEPaZ30keEf7oGlMj-yY-2" edge="1">
          <mxGeometry width="50" height="50" relative="1" as="geometry">
            <mxPoint x="280" y="250" as="sourcePoint" />
            <mxPoint x="430" y="190" as="targetPoint" />
          </mxGeometry>
        </mxCell>
      </root>
    </mxGraphModel>
  </diagram>
</mxfile>
